<svg width="1200" height="760" viewBox="0 0 1200 760" fill="none" xmlns="http://www.w3.org/2000/svg" role="img" aria-labelledby="title desc">
  <title id="title">JobFlow product preview</title>
  <desc id="desc">Illustrative preview of the JobFlow frontend including the auth panel, search filters, results cards, and workspace navigation.</desc>
  <defs>
    <linearGradient id="bg" x1="130" y1="80" x2="1070" y2="700" gradientUnits="userSpaceOnUse">
      <stop stop-color="#F2E9DC"/>
      <stop offset="1" stop-color="#D9E3EA"/>
    </linearGradient>
    <linearGradient id="brand" x1="0" y1="0" x2="1" y2="1">
      <stop stop-color="#0F766E"/>
      <stop offset="1" stop-color="#163042"/>
    </linearGradient>
    <linearGradient id="darkCard" x1="180" y1="90" x2="520" y2="430" gradientUnits="userSpaceOnUse">
      <stop stop-color="#0B1620"/>
      <stop offset="1" stop-color="#1B3B4E"/>
    </linearGradient>
    <filter id="shadow" x="-20%" y="-20%" width="140%" height="160%">
      <feDropShadow dx="0" dy="18" stdDeviation="22" flood-color="#15222D" flood-opacity="0.16"/>
    </filter>
    <filter id="softShadow" x="-20%" y="-20%" width="140%" height="160%">
      <feDropShadow dx="0" dy="10" stdDeviation="14" flood-color="#15222D" flood-opacity="0.11"/>
    </filter>
  </defs>

  <rect width="1200" height="760" rx="36" fill="url(#bg)"/>
  <circle cx="140" cy="118" r="170" fill="#D97706" fill-opacity="0.16"/>
  <circle cx="1032" cy="134" r="142" fill="#0F766E" fill-opacity="0.10"/>
  <circle cx="1048" cy="650" r="178" fill="#163042" fill-opacity="0.08"/>

  <text x="80" y="86" fill="#163042" font-family="Arial, Helvetica, sans-serif" font-size="20" font-weight="700">Find Job API</text>
  <text x="80" y="114" fill="#5B6976" font-family="Arial, Helvetica, sans-serif" font-size="16">Illustrative preview based on the current Angular frontend</text>

  <g filter="url(#softShadow)">
    <rect x="70" y="150" width="330" height="500" rx="34" fill="url(#darkCard)"/>
    <circle cx="136" cy="200" r="18" fill="#F59E0B" fill-opacity="0.18"/>
    <circle cx="312" cy="208" r="78" fill="#2DD4BF" fill-opacity="0.12"/>
    <rect x="106" y="186" width="128" height="34" rx="17" fill="#FFFFFF" fill-opacity="0.10"/>
    <text x="132" y="208" fill="#FFD08A" font-family="Arial, Helvetica, sans-serif" font-size="13" font-weight="700">ACCOUNT WORKSPACE</text>
    <text x="104" y="272" fill="white" font-family="Arial, Helvetica, sans-serif" font-size="34" font-weight="700">A sharper</text>
    <text x="104" y="312" fill="white" font-family="Arial, Helvetica, sans-serif" font-size="34" font-weight="700">job tracker</text>
    <text x="104" y="352" fill="white" font-family="Arial, Helvetica, sans-serif" font-size="34" font-weight="700">with real accounts.</text>
    <text x="104" y="392" fill="#D7E3EA" font-family="Arial, Helvetica, sans-serif" font-size="15">SQLite-backed users, generated API keys,</text>
    <text x="104" y="414" fill="#D7E3EA" font-family="Arial, Helvetica, sans-serif" font-size="15">protected routes, and a cleaner search desk.</text>

    <rect x="104" y="452" width="126" height="92" rx="22" fill="#FFFFFF" fill-opacity="0.08" stroke="#FFFFFF" stroke-opacity="0.12"/>
    <rect x="244" y="452" width="126" height="92" rx="22" fill="#FFFFFF" fill-opacity="0.08" stroke="#FFFFFF" stroke-opacity="0.12"/>
    <rect x="104" y="560" width="126" height="92" rx="22" fill="#FFFFFF" fill-opacity="0.08" stroke="#FFFFFF" stroke-opacity="0.12"/>
    <rect x="244" y="560" width="126" height="92" rx="22" fill="#FFFFFF" fill-opacity="0.08" stroke="#FFFFFF" stroke-opacity="0.12"/>

    <circle cx="134" cy="484" r="16" fill="#F59E0B" fill-opacity="0.18"/>
    <circle cx="274" cy="484" r="16" fill="#F59E0B" fill-opacity="0.18"/>
    <circle cx="134" cy="592" r="16" fill="#F59E0B" fill-opacity="0.18"/>
    <circle cx="274" cy="592" r="16" fill="#F59E0B" fill-opacity="0.18"/>

    <text x="122" y="521" fill="white" font-family="Arial, Helvetica, sans-serif" font-size="14" font-weight="700">User DB</text>
    <text x="122" y="542" fill="#C6D3DC" font-family="Arial, Helvetica, sans-serif" font-size="12">SQLite-backed</text>
    <text x="262" y="521" fill="white" font-family="Arial, Helvetica, sans-serif" font-size="14" font-weight="700">API Key</text>
    <text x="262" y="542" fill="#C6D3DC" font-family="Arial, Helvetica, sans-serif" font-size="12">Generated per session</text>
    <text x="122" y="629" fill="white" font-family="Arial, Helvetica, sans-serif" font-size="14" font-weight="700">Filters</text>
    <text x="122" y="650" fill="#C6D3DC" font-family="Arial, Helvetica, sans-serif" font-size="12">Distance, mode, type</text>
    <text x="262" y="629" fill="white" font-family="Arial, Helvetica, sans-serif" font-size="14" font-weight="700">Workspace</text>
    <text x="262" y="650" fill="#C6D3DC" font-family="Arial, Helvetica, sans-serif" font-size="12">Saved roles and notes</text>
  </g>

  <g filter="url(#shadow)">
    <rect x="332" y="104" width="810" height="562" rx="34" fill="#FFFDF9" fill-opacity="0.88" stroke="white" stroke-opacity="0.74"/>
    <rect x="332" y="104" width="810" height="40" rx="34" fill="#FFFFFF" fill-opacity="0.72"/>
    <circle cx="370" cy="124" r="6" fill="#D97706" fill-opacity="0.75"/>
    <circle cx="392" cy="124" r="6" fill="#0F766E" fill-opacity="0.65"/>
    <circle cx="414" cy="124" r="6" fill="#163042" fill-opacity="0.35"/>

    <rect x="366" y="170" width="742" height="88" rx="28" fill="#FFFFFF" fill-opacity="0.90" stroke="#E5E7EB"/>
    <rect x="388" y="190" width="48" height="48" rx="16" fill="url(#brand)"/>
    <text x="451" y="205" fill="#111D27" font-family="Arial, Helvetica, sans-serif" font-size="26" font-weight="700">JobFlow</text>
    <text x="451" y="228" fill="#5B6976" font-family="Arial, Helvetica, sans-serif" font-size="14">Search desk, shortlist, and account-backed API access</text>

    <rect x="716" y="192" width="90" height="40" rx="20" fill="#0F766E" fill-opacity="0.10" stroke="#0F766E" stroke-opacity="0.18"/>
    <text x="742" y="217" fill="#0F766E" font-family="Arial, Helvetica, sans-serif" font-size="15" font-weight="700">Search</text>
    <rect x="816" y="192" width="86" height="40" rx="20" fill="#FFFFFF" stroke="#E5E7EB"/>
    <text x="838" y="217" fill="#5B6976" font-family="Arial, Helvetica, sans-serif" font-size="15" font-weight="700">Saved</text>
    <rect x="912" y="192" width="96" height="40" rx="20" fill="#FFFFFF" stroke="#E5E7EB"/>
    <text x="936" y="217" fill="#5B6976" font-family="Arial, Helvetica, sans-serif" font-size="15" font-weight="700">Activity</text>

    <rect x="1018" y="184" width="72" height="56" rx="28" fill="#FFFFFF" stroke="#E5E7EB"/>
    <text x="1038" y="208" fill="#111D27" font-family="Arial, Helvetica, sans-serif" font-size="13" font-weight="700">Parth</text>
    <text x="1034" y="227" fill="#5B6976" font-family="Arial, Helvetica, sans-serif" font-size="11">jobflo***9cz1</text>

    <rect x="366" y="286" width="282" height="326" rx="26" fill="#FFFCF8" stroke="#E5E7EB"/>
    <text x="396" y="324" fill="#111D27" font-family="Arial, Helvetica, sans-serif" font-size="22" font-weight="700">Search filters</text>
    <text x="396" y="348" fill="#5B6976" font-family="Arial, Helvetica, sans-serif" font-size="14">Adjust the backend query and refine the result set.</text>

    <rect x="396" y="374" width="222" height="54" rx="16" fill="#FFFFFF" stroke="#D6DCE1"/>
    <text x="412" y="405" fill="#8A97A3" font-family="Arial, Helvetica, sans-serif" font-size="14">software engineer</text>
    <rect x="396" y="440" width="104" height="54" rx="16" fill="#FFFFFF" stroke="#D6DCE1"/>
    <rect x="514" y="440" width="104" height="54" rx="16" fill="#FFFFFF" stroke="#D6DCE1"/>
    <rect x="396" y="506" width="104" height="54" rx="16" fill="#FFFFFF" stroke="#D6DCE1"/>
    <rect x="514" y="506" width="104" height="54" rx="16" fill="#FFFFFF" stroke="#D6DCE1"/>
    <text x="425" y="472" fill="#5B6976" font-family="Arial, Helvetica, sans-serif" font-size="13">United States</text>
    <text x="540" y="472" fill="#5B6976" font-family="Arial, Helvetica, sans-serif" font-size="13">Austin</text>
    <text x="433" y="538" fill="#5B6976" font-family="Arial, Helvetica, sans-serif" font-size="13">Remote</text>
    <text x="544" y="538" fill="#5B6976" font-family="Arial, Helvetica, sans-serif" font-size="13">Full-time</text>
    <rect x="396" y="578" width="122" height="40" rx="20" fill="url(#brand)"/>
    <text x="429" y="603" fill="white" font-family="Arial, Helvetica, sans-serif" font-size="14" font-weight="700">Search jobs</text>
    <rect x="530" y="578" width="88" height="40" rx="20" fill="#FFFFFF" stroke="#D6DCE1"/>
    <text x="559" y="603" fill="#163042" font-family="Arial, Helvetica, sans-serif" font-size="14" font-weight="700">Clear</text>

    <rect x="674" y="286" width="434" height="112" rx="26" fill="#FFF9F1" stroke="#F3E6D0"/>
    <rect x="700" y="312" width="164" height="28" rx="14" fill="#163042" fill-opacity="0.08"/>
    <text x="719" y="331" fill="#163042" font-family="Arial, Helvetica, sans-serif" font-size="13" font-weight="700">SEARCH CONTROL CENTER</text>
    <text x="700" y="366" fill="#111D27" font-family="Arial, Helvetica, sans-serif" font-size="31" font-weight="700">Find roles by place,</text>
    <text x="700" y="402" fill="#111D27" font-family="Arial, Helvetica, sans-serif" font-size="31" font-weight="700">distance, type, and work style.</text>
    <rect x="982" y="312" width="96" height="60" rx="18" fill="#FFFFFF" stroke="#E5E7EB"/>
    <text x="1008" y="334" fill="#5B6976" font-family="Arial, Helvetica, sans-serif" font-size="12">Saved</text>
    <text x="1006" y="362" fill="#111D27" font-family="Arial, Helvetica, sans-serif" font-size="24" font-weight="700">12</text>

    <rect x="674" y="418" width="434" height="92" rx="24" fill="#FFFFFF" stroke="#E5E7EB"/>
    <rect x="698" y="440" width="78" height="28" rx="14" fill="#163042" fill-opacity="0.08"/>
    <rect x="786" y="440" width="82" height="28" rx="14" fill="#0F766E" fill-opacity="0.12"/>
    <rect x="878" y="440" width="70" height="28" rx="14" fill="#D97706" fill-opacity="0.15"/>
    <text x="720" y="459" fill="#163042" font-family="Arial, Helvetica, sans-serif" font-size="12" font-weight="700">Remote</text>
    <text x="808" y="459" fill="#0F766E" font-family="Arial, Helvetica, sans-serif" font-size="12" font-weight="700">Full-time</text>
    <text x="902" y="459" fill="#9A6700" font-family="Arial, Helvetica, sans-serif" font-size="12" font-weight="700">18 km</text>
    <text x="698" y="490" fill="#111D27" font-family="Arial, Helvetica, sans-serif" font-size="24" font-weight="700">Backend Software Developer</text>
    <text x="698" y="514" fill="#5B6976" font-family="Arial, Helvetica, sans-serif" font-size="14">Aperio Global · Washington</text>
    <rect x="980" y="452" width="96" height="36" rx="18" fill="#FFFFFF" stroke="#D6DCE1"/>
    <text x="1001" y="474" fill="#163042" font-family="Arial, Helvetica, sans-serif" font-size="13" font-weight="700">View details</text>

    <rect x="674" y="526" width="434" height="92" rx="24" fill="#FFFFFF" stroke="#E5E7EB"/>
    <rect x="698" y="548" width="72" height="28" rx="14" fill="#163042" fill-opacity="0.08"/>
    <rect x="780" y="548" width="72" height="28" rx="14" fill="#D97706" fill-opacity="0.15"/>
    <text x="720" y="567" fill="#163042" font-family="Arial, Helvetica, sans-serif" font-size="12" font-weight="700">Hybrid</text>
    <text x="804" y="567" fill="#9A6700" font-family="Arial, Helvetica, sans-serif" font-size="12" font-weight="700">26 km</text>
    <text x="698" y="598" fill="#111D27" font-family="Arial, Helvetica, sans-serif" font-size="24" font-weight="700">Platform Engineer</text>
    <text x="698" y="622" fill="#5B6976" font-family="Arial, Helvetica, sans-serif" font-size="14">Product Systems Ltd · Austin</text>
    <rect x="958" y="560" width="118" height="36" rx="18" fill="url(#brand)"/>
    <text x="998" y="582" fill="white" font-family="Arial, Helvetica, sans-serif" font-size="13" font-weight="700">Save role</text>
  </g>
</svg>
